<svg xmlns="http://www.w3.org/2000/svg" viewBox="0 0 50 50">
  <path d="M1.8125 2C1.78125 2.007813 1.75 2.019531 1.71875 2.03125C0.746094 2.167969 0 2.992188 0 4C0 5.105469 0.894531 6 2 6C3.105469 6 4 5.105469 4 4L8.65625 4C9.902344 4 10.550781 4.257813 11.03125 4.6875C11.503906 5.113281 11.886719 5.832031 12.21875 6.9375L20.21875 39.21875C20.519531 40.363281 20.820313 41.542969 21.65625 42.5C22.003906 42.898438 22.441406 43.222656 22.96875 43.46875C22.382813 44.164063 22 45.027344 22 46C22 48.199219 23.800781 50 26 50C28.199219 50 30 48.199219 30 46C30 45.265625 29.785156 44.59375 29.4375 44L35.5625 44C35.214844 44.59375 35 45.265625 35 46C35 48.199219 36.800781 50 39 50C41.199219 50 43 48.199219 43 46C43 44.972656 42.582031 44.054688 41.9375 43.34375C42.050781 43.039063 42.003906 42.695313 41.820313 42.429688C41.632813 42.160156 41.328125 42 41 42L25.71875 42C24.175781 42 23.546875 41.671875 23.125 41.1875C22.707031 40.707031 22.453125 39.867188 22.15625 38.75L22.15625 38.71875L21.46875 36L39.8125 36C40.230469 36 40.609375 35.738281 40.75 35.34375L47.9375 16.34375C48.054688 16.039063 48.011719 15.695313 47.824219 15.425781C47.636719 15.15625 47.328125 14.996094 47 15L16.28125 15L14.15625 6.46875C14.15625 6.449219 14.15625 6.425781 14.15625 6.40625C13.773438 5.117188 13.277344 4 12.375 3.1875C11.472656 2.375 10.203125 2 8.65625 2L2 2C1.96875 2 1.9375 2 1.90625 2C1.875 2 1.84375 2 1.8125 2 Z M 16.78125 17L45.5625 17L39.125 34L21 34 Z M 26 44C27.117188 44 28 44.882813 28 46C28 47.117188 27.117188 48 26 48C24.882813 48 24 47.117188 24 46C24 44.882813 24.882813 44 26 44 Z M 39 44C40.117188 44 41 44.882813 41 46C41 47.117188 40.117188 48 39 48C37.882813 48 37 47.117188 37 46C37 44.882813 37.882813 44 39 44Z" fill="#5B5B5B" />
</svg>